<?xml version="1.0" standalone="no"?>
<!DOCTYPE svg PUBLIC "-//W3C//DTD SVG 20010904//EN"
 "http://www.w3.org/TR/2001/REC-SVG-20010904/DTD/svg10.dtd">
<svg version="1.0" xmlns="http://www.w3.org/2000/svg"
 width="1152.000000pt" height="1152.000000pt" viewBox="0 0 1152.000000 1152.000000"
 preserveAspectRatio="xMidYMid meet">
<metadata>
Created by potrace 1.14, written by Peter Selinger 2001-2017
</metadata>
<g transform="translate(0.000000,1152.000000) scale(0.100000,-0.100000)"
fill="#000000" stroke="none">
<path d="M5548 10540 c-51 -28 -121 -99 -219 -227 -193 -251 -251 -311 -328
-346 -87 -38 -169 -5 -424 171 -235 161 -294 192 -371 194 -107 2 -160 -75
-266 -389 -95 -278 -149 -372 -239 -411 -77 -33 -221 -12 -371 55 -118 52
-415 92 -472 62 -86 -44 -97 -86 -108 -424 -9 -272 -17 -331 -55 -405 -37 -74
-88 -109 -186 -129 -32 -7 -176 -16 -320 -20 -281 -8 -314 -14 -367 -64 -78
-72 -76 -159 8 -457 58 -206 77 -325 61 -393 -25 -112 -106 -167 -413 -282
-95 -36 -198 -80 -228 -99 -71 -43 -117 -102 -126 -162 -12 -81 22 -156 168
-374 200 -297 226 -368 174 -474 -33 -67 -103 -134 -290 -273 -78 -58 -163
-126 -189 -152 -57 -54 -97 -126 -97 -176 0 -73 67 -168 190 -268 l45 -36
-562 -1 -563 0 0 -90 0 -90 5750 0 5750 0 0 90 0 90 -687 0 -687 0 86 84 c105
103 142 161 142 225 -1 88 -44 141 -259 316 -175 143 -287 257 -305 310 -19
58 -8 141 28 218 17 38 77 139 133 225 134 206 125 191 149 261 26 79 26 136
-2 191 -44 86 -109 119 -383 197 -250 71 -321 109 -358 191 -17 40 -19 60 -14
151 6 113 35 236 102 436 60 179 60 258 -2 326 -61 67 -120 79 -433 89 -327
11 -376 21 -435 92 -58 69 -65 110 -74 433 -7 224 -12 290 -26 330 -33 95 -79
125 -192 125 -76 0 -107 -6 -403 -70 -92 -20 -176 -32 -230 -33 -169 -2 -211
48 -361 440 -71 186 -108 259 -155 304 -31 30 -42 34 -87 34 -69 0 -123 -27
-330 -159 -273 -175 -363 -212 -449 -187 -87 27 -151 86 -340 318 -195 238
-276 287 -380 233z m532 -685 c870 -105 1672 -489 2316 -1108 451 -433 794
-961 1019 -1572 175 -472 270 -1074 248 -1562 l-6 -143 -81 0 -81 0 0 303 c0
227 -5 338 -18 447 -94 761 -380 1441 -863 2047 -110 137 -446 472 -589 585
-581 461 -1205 726 -1945 825 -210 28 -707 25 -929 -5 -610 -83 -1153 -286
-1651 -618 -804 -536 -1388 -1359 -1625 -2289 -94 -370 -120 -580 -120 -982
l0 -313 -86 0 -86 0 -7 61 c-16 161 -2 538 30 779 165 1252 884 2360 1941
2991 567 338 1125 513 1833 573 107 9 572 -3 700 -19z m-140 -305 c1617 -145
2961 -1336 3328 -2950 74 -323 109 -750 85 -1047 l-6 -83 -694 0 -694 0 73 58
c404 322 551 737 335 952 -91 90 -188 123 -365 124 -109 1 -113 1 -107 21 3
11 8 68 12 127 5 88 3 115 -11 152 -22 57 -84 122 -144 149 l-47 22 -2005 0
-2005 0 -51 -27 c-68 -36 -121 -99 -141 -168 -14 -47 -14 -69 -4 -165 43 -400
188 -811 400 -1137 l70 -108 -1038 0 -1039 0 -7 155 c-4 85 -4 217 -1 292 42
849 325 1596 854 2259 109 137 394 424 532 536 586 475 1245 752 1982 832 150
17 531 20 688 6z m2177 -3232 c59 -27 78 -60 77 -135 0 -53 -7 -76 -43 -149
-78 -156 -293 -349 -511 -459 -66 -33 -168 -70 -175 -63 -2 2 18 37 44 78 113
176 244 457 301 650 13 41 26 79 30 83 10 11 144 24 195 19 22 -2 59 -13 82
-24z"/>
<path d="M5660 9151 c0 -4 13 -37 29 -73 41 -90 65 -215 57 -298 -11 -122 -50
-210 -155 -350 -215 -288 -264 -580 -144 -864 74 -177 227 -330 396 -397 40
-16 78 -28 85 -29 8 0 -16 30 -53 68 -130 131 -185 240 -193 383 -8 146 46
277 184 449 145 181 202 281 235 408 63 245 -29 467 -255 616 -120 79 -186
110 -186 87z"/>
<path d="M5182 8923 c29 -79 30 -216 4 -292 -10 -30 -44 -91 -74 -135 -108
-158 -144 -261 -145 -411 0 -156 46 -284 140 -385 55 -60 98 -92 141 -105 21
-6 17 2 -27 65 -64 91 -86 155 -85 245 1 86 28 160 92 253 178 260 198 304
196 442 -2 139 -56 243 -173 331 -86 65 -95 64 -69 -8z"/>
<path d="M6092 7930 c-133 -188 -151 -225 -152 -303 0 -70 23 -119 78 -169 36
-32 82 -64 82 -56 0 2 -9 27 -20 56 -12 32 -20 76 -20 116 0 72 16 109 98 221
51 71 82 144 82 193 0 34 -19 102 -28 102 -4 -1 -58 -72 -120 -160z"/>
<path d="M851 4959 c-138 -27 -250 -150 -292 -319 -18 -71 -18 -249 0 -320 16
-66 53 -141 92 -191 91 -116 277 -157 445 -99 97 34 104 41 104 110 0 33 -4
60 -9 60 -5 0 -34 -11 -64 -25 -141 -62 -264 -56 -343 17 -57 52 -84 125 -91
244 -13 204 48 346 163 384 38 13 190 10 212 -4 8 -4 12 -33 12 -78 l0 -71 38
7 c20 3 47 6 60 6 22 0 22 2 22 114 l0 113 -43 17 c-105 40 -217 53 -306 35z"/>
<path d="M1774 4930 c-64 -26 -145 -109 -180 -185 -50 -108 -65 -272 -40 -417
38 -210 162 -331 341 -332 220 -1 355 185 355 488 0 173 -36 287 -117 377 -58
64 -103 82 -213 86 -77 2 -105 -1 -146 -17z m193 -116 c12 -2 36 -16 53 -30
62 -53 90 -145 90 -299 0 -216 -67 -341 -189 -353 -66 -6 -113 12 -155 58 -54
60 -70 128 -71 295 0 148 10 200 47 255 53 77 113 97 225 74z"/>
<path d="M2604 4926 c-3 -7 -4 -35 -2 -62 l3 -49 48 -3 47 -3 0 -137 c0 -75
-3 -228 -7 -339 l-6 -203 -44 0 -43 0 0 -59 0 -58 92 -7 c50 -3 126 -6 170 -6
l78 0 0 65 0 65 -55 0 -55 0 0 135 0 135 70 0 70 0 0 -50 0 -50 60 0 60 0 0
155 0 156 -57 -3 -58 -3 -3 -42 -3 -43 -57 0 c-31 0 -62 4 -68 8 -8 5 -10 47
-6 145 l5 137 118 0 119 0 0 -55 0 -55 65 0 65 0 0 113 0 114 -122 6 c-66 4
-202 7 -300 7 -142 0 -180 -3 -184 -14z"/>
<path d="M3490 4870 l0 -60 50 0 50 0 -2 -342 -3 -343 -47 -3 -48 -3 0 -60 0
-59 170 0 170 0 0 29 c0 16 3 43 6 60 l7 31 -62 0 -61 0 0 98 c0 53 3 114 6
135 l7 37 63 0 64 0 0 -50 0 -50 60 0 60 0 0 155 0 155 -60 0 -60 0 0 -40 0
-40 -65 0 -65 0 0 140 0 140 120 0 120 0 0 -55 0 -55 65 0 66 0 -3 118 -3 117
-302 3 -303 2 0 -60z"/>
<path d="M4385 4918 c-4 -9 -5 -37 -3 -64 l3 -49 48 -3 47 -3 0 -208 c0 -114
-3 -268 -6 -342 l-7 -134 -43 4 -44 3 0 -66 0 -66 310 0 310 0 0 120 0 121
-62 -3 -63 -3 -3 -58 -3 -58 -127 3 -127 3 -3 143 -3 142 61 0 60 0 0 -50 0
-50 65 0 66 0 -3 153 -3 152 -57 3 -58 3 0 -41 0 -40 -60 0 -60 0 0 135 0 136
118 -3 117 -3 3 -57 3 -58 64 0 65 0 0 120 0 120 -217 0 c-120 0 -255 3 -300
7 -69 5 -83 3 -88 -9z"/>
<path d="M5325 4908 c-4 -9 -5 -37 -3 -64 l3 -49 48 -3 47 -3 0 -203 c0 -112
-3 -264 -7 -339 l-6 -137 -42 0 -43 0 -5 -57 c-2 -32 -3 -61 0 -65 2 -5 143
-8 314 -8 l309 0 0 120 0 120 -65 0 -65 0 0 -55 0 -55 -130 0 -131 0 3 143 3
142 58 3 57 3 0 -51 0 -50 65 0 66 0 -3 148 -3 147 -57 3 -58 3 0 -41 0 -40
-59 0 c-33 0 -62 4 -66 9 -3 6 -2 66 1 135 l7 126 119 0 118 0 0 -60 0 -61 63
3 62 3 3 118 3 117 -89 0 c-49 0 -184 3 -300 7 -185 5 -212 4 -217 -9z"/>
<path d="M7483 4910 c-56 -12 -112 -42 -149 -82 -50 -53 -67 -95 -67 -169 0
-128 59 -200 216 -264 180 -74 213 -105 205 -197 -6 -54 -27 -84 -75 -104 -34
-15 -128 -18 -181 -8 -31 6 -31 7 -34 73 l-3 66 -63 3 -63 3 3 -113 3 -113 70
-24 c95 -32 236 -34 311 -4 114 45 177 128 178 237 1 34 -3 78 -7 98 -11 53
-82 128 -153 160 -33 15 -98 45 -146 67 -93 42 -128 78 -128 132 0 32 37 89
70 107 26 14 165 12 188 -2 7 -4 12 -31 12 -65 l0 -58 60 -7 c33 -4 65 -4 70
-1 6 3 10 52 10 109 l0 104 -47 20 c-88 37 -191 49 -280 32z"/>
<path d="M8167 4894 c-4 -4 -7 -33 -7 -65 l0 -58 48 -3 c37 -2 47 -7 46 -20 0
-10 -1 -162 -2 -337 l-2 -320 -47 -3 -48 -3 0 -60 0 -60 163 -3 162 -2 0 60 0
60 -45 0 -45 0 0 145 0 145 195 0 195 0 0 -145 0 -145 -45 0 -45 0 0 -60 0
-60 165 0 165 0 0 60 0 60 -50 0 -50 0 2 343 3 342 48 3 47 3 0 60 0 59 -165
0 -165 0 0 -59 0 -60 48 -3 c44 -3 47 -5 50 -33 2 -16 1 -76 -3 -132 l-7 -103
-194 0 -194 0 0 135 0 135 50 0 51 0 -3 63 -3 62 -156 3 c-85 1 -158 -1 -162
-4z"/>
<path d="M9673 4890 c-148 -21 -259 -143 -298 -327 -29 -138 -12 -327 40 -436
33 -70 91 -129 163 -164 48 -23 70 -28 137 -28 67 0 89 5 136 28 145 70 219
228 219 461 0 213 -63 361 -184 431 -36 21 -59 27 -141 39 -11 2 -43 0 -72 -4z
m142 -149 c84 -47 122 -170 112 -363 -7 -158 -42 -241 -121 -289 -35 -21 -124
-26 -159 -8 -86 44 -126 132 -134 294 -12 230 37 350 154 380 55 14 105 10
148 -14z"/>
<path d="M10430 4815 l0 -65 50 0 50 0 0 -340 0 -340 -55 0 -56 0 3 -62 3 -63
173 -3 173 -2 -3 62 -3 63 -52 3 -53 3 0 118 0 119 88 4 c163 8 254 78 281
218 28 141 -18 258 -124 313 -42 21 -191 35 -387 36 l-88 1 0 -65z m400 -83
c45 -22 64 -62 64 -138 0 -84 -24 -124 -89 -146 -28 -9 -71 -17 -97 -18 l-48
0 0 160 0 160 68 0 c44 0 79 -6 102 -18z"/>
<path d="M0 3465 l0 -95 910 0 c728 0 910 -3 910 -13 0 -7 -11 -62 -25 -122
-47 -206 -31 -296 60 -336 66 -29 134 -38 390 -49 321 -14 393 -36 447 -138
39 -72 47 -120 63 -383 17 -270 27 -338 59 -395 55 -100 147 -97 546 17 170
48 290 58 347 26 92 -50 164 -178 239 -427 71 -239 125 -326 216 -351 89 -24
190 20 418 183 85 60 187 125 226 145 67 32 78 35 143 31 87 -5 134 -34 204
-128 210 -285 323 -414 392 -446 64 -30 99 -30 163 2 63 31 125 98 267 285
181 239 254 296 365 286 75 -6 139 -40 364 -191 243 -164 255 -170 337 -171
57 0 70 4 102 28 20 15 47 47 61 70 26 46 119 283 172 441 59 173 111 234 222
257 80 16 157 1 390 -78 175 -59 206 -66 277 -67 125 -1 181 36 226 152 21 52
23 81 29 342 5 168 12 300 19 322 17 56 70 119 121 145 73 37 139 44 400 41
211 -2 253 0 302 15 165 50 188 206 73 500 -7 16 47 17 1039 17 l1046 0 0 90
0 90 -5760 0 -5760 0 0 -95z m2630 -192 c104 -131 340 -375 475 -492 569 -491
1246 -801 1980 -905 367 -53 811 -49 1172 9 528 85 1047 294 1508 606 323 220
620 495 854 791 l76 97 98 1 c53 0 97 -4 97 -9 0 -11 -122 -172 -199 -261
-120 -141 -241 -268 -352 -370 -1016 -933 -2336 -1281 -3669 -966 -883 209
-1697 746 -2263 1494 -42 55 -77 104 -77 107 0 3 49 5 108 5 l108 0 84 -107z
m5880 91 c0 -14 -168 -198 -292 -321 -505 -500 -1138 -846 -1809 -988 -625
-132 -1307 -99 -1904 92 -543 174 -1043 473 -1453 868 -108 104 -271 281 -309
335 l-14 20 2890 0 c1590 0 2891 -3 2891 -6z"/>
</g>
</svg>
