<svg xmlns="http://www.w3.org/2000/svg" aria-hidden="true" style="position:absolute;width:0;height:0;overflow:hidden">
  <defs>
    <symbol id="iconarrow-left-coffe-shop" viewBox="0 0 32 32">
      <path stroke-linecap="round" stroke-linejoin="round" stroke-width="2" d="M30.667 16h-24M16 25.333 6.667 16 16 6.667"/>
    </symbol>
    <symbol id="iconarrow-right-coffe-shop" viewBox="0 0 32 32">
      <path stroke-linecap="round" stroke-linejoin="round" stroke-width="2" d="M1.333 16h24M16 6.667 25.333 16 16 25.333"/>
    </symbol>
    <symbol id="iconLogo-coffe-shop" viewBox="0 0 38 32">
      <path d="M19.833 11.421c-1.124-.983-1.195-1.894-.285-3.022.128-.159.27-.318.384-.492.839-1.215.555-2.43-.726-3.095a3.832 3.832 0 0 0-.341-.174c.014.072.014.116.028.145.427.839.341 1.605-.256 2.314-.1.116-.185.246-.256.376-1.081 1.75-.014 3.63 1.451 3.948z"/>
      <path d="M17.614 9.932c-.654-.709-.669-1.33-.085-2.082.085-.101.171-.217.242-.333.541-.81.398-1.663-.356-2.155a2.458 2.458 0 0 0-.199-.13c0 .043 0 .072.014.101.242.578.157 1.114-.213 1.591-.057.072-.114.159-.171.246-.683 1.186-.1 2.516.768 2.762zM20.374 10.568c-.185-.318-.27-.651-.085-.998.085-.159.199-.304.299-.434.228-.304.27-.622.128-.94-.228.318-.441.622-.669.94-.427.578-.341 1.056.327 1.432zM3.998 19.606v-.766l-.043-.014c-.285-.116-.555-.188-.825-.188-.398 0-.726.145-.953.434-.242.289-.356.68-.37 1.171 0 .492.114.897.341 1.171.228.289.555.434.953.448h.014c.285 0 .555-.072.825-.217l.043-.014v-.463l-.1.058c-.27.145-.526.202-.754.202-.27 0-.47-.101-.612-.289s-.228-.492-.213-.911c0-.39.071-.68.228-.868.142-.188.341-.275.612-.275.171 0 .327.029.441.072v.463l.413-.015zM6.303 21.891c.37 0 .669-.145.882-.434s.327-.694.327-1.2c0-.477-.1-.868-.299-1.142-.199-.289-.484-.434-.854-.434s-.669.145-.896.434c-.213.289-.327.68-.327 1.171s.1.897.313 1.186c.213.26.498.405.854.419zm-.484-2.516c.128-.174.299-.275.526-.26.228 0 .398.087.512.275.128.188.185.477.185.868 0 .405-.071.709-.199.897s-.299.289-.512.289c-.228 0-.384-.101-.512-.289-.128-.202-.185-.506-.185-.897-.014-.405.057-.709.185-.882zM8.65 21.428v.419l1.167.014v-.419h-.37v-.911h.455v.333h.398l.014-1.012h-.413v.275l-.455-.014.014-.954h.811v.39h.413l.014-.795-2.02-.014v.419h.313l-.014 2.27H8.65zM11.624 21.457v.419h1.152l.014-.419h-.384l.014-.897h.441v.333h.413v-1.027h-.398v.275h-.455v-.954h.825l-.014.39h.427l.014-.795-2.034-.029v.419h.327l-.014 2.285h-.327zM14.597 21.472l-.014.419 2.077.015.014-.795h-.427v.376h-.868v-.954h.398v.333h.413v-1.027h-.398v.275h-.398v-.911l.811.014v.376l.427.014v-.81l-2.02-.014v.419h.327l-.028 2.285-.313-.014zM17.727 21.501l-.014.419 2.077.014.014-.795-.427-.014v.39l-.868-.014v-.954h.398v.333h.413v-1.012h-.398v.275l-.413-.014.014-.897h.811v.39h.427v-.795l-2.02-.014v.405l.327.015-.028 2.27h-.313zM26.022 19.722v-.723l-.043-.014a1.595 1.595 0 0 0-.74-.174c-.313 0-.555.072-.74.231s-.285.361-.285.622c0 .145.028.275.071.376.057.101.114.188.199.26s.171.13.27.174c.1.043.199.087.285.116.1.043.185.087.27.116.071.043.128.072.185.116a.333.333 0 0 1 .1.145.37.37 0 0 1 .043.188c0 .145-.043.246-.142.333s-.242.116-.413.116c-.171 0-.313-.014-.427-.058v-.434h-.427v.738l.043.015c.242.101.498.159.782.159h.014c.313 0 .569-.087.754-.246.199-.159.299-.39.299-.665 0-.159-.028-.289-.071-.39s-.114-.188-.199-.26c-.071-.072-.171-.13-.27-.174l-.299-.13c-.1-.043-.185-.072-.27-.116a1.098 1.098 0 0 1-.185-.101c-.043-.043-.085-.087-.114-.13s-.043-.101-.043-.174c0-.116.043-.202.128-.289s.228-.13.398-.116c.142 0 .27.029.37.058v.419l.455.014zM27.174 21.573v.419l1.11.014v-.419h-.327l.014-.969 1.309.014v.954h-.327v.419h1.096l.014-.405h-.327l.014-2.285h.327v-.419h-1.11v.405l.327.014-.014.897-1.309-.014v-.897h.327v-.419h-1.096l-.014.419h.327l-.014 2.27h-.327zM32.368 22.094c.014 0 .014 0 0 0 .37 0 .669-.145.882-.434s.327-.694.327-1.2c0-.477-.1-.868-.299-1.142-.199-.289-.484-.434-.854-.434s-.669.145-.896.434c-.213.289-.327.68-.327 1.171s.1.897.313 1.186c.213.26.498.405.854.419zm-.484-2.516c.128-.174.299-.26.526-.26s.398.087.512.275c.128.188.185.477.185.868 0 .405-.071.709-.199.897s-.299.289-.512.289c-.228 0-.384-.101-.512-.289-.128-.202-.185-.506-.185-.897 0-.405.057-.709.185-.882zM34.729 21.631v.419l1.167.014v-.419h-.37v-.795h.185c.341 0 .612-.087.797-.246.185-.174.285-.419.285-.752 0-.289-.085-.506-.242-.665s-.413-.231-.74-.231l-1.039-.015v.419h.327l-.014 2.285-.356-.014zm.996-1.2h-.199l.014-1.07h.228c.199 0 .341.043.427.116s.128.202.128.405c0 .202-.057.333-.142.419a.768.768 0 0 1-.455.13z"/>
      <path d="M33.762 16.974c.071-.058.128-.116.199-.174.768-.694.754-1.027-.071-1.692-1.65-1.316-1.65-1.316-.469-3.08.541-.824.413-1.359-.512-1.634-1.764-.535-2.22-.333-1.394-2.849.014-.043.043-.101.057-.145.185-.68-.014-1.012-.726-1.099-.441-.058-.896-.014-1.337-.043-.925-.043-1.138-.289-1.167-1.229v-.636c0-1.417-.213-1.591-1.565-1.273-1.85.434-1.85.434-2.533-1.388-.441-1.171-.654-1.244-1.679-.564C20.9 2.253 20.9 2.253 19.634.691c-.74-.926-1.067-.926-1.793.029-1.295 1.692-1.224 1.634-2.888.477-1.053-.738-1.337-.593-1.75.651-.47 1.432-.64 2.082-2.291 1.316-.114-.058-.256-.043-.384-.072-1.095-.26-1.366-.101-1.352 1.027.014 2.198-.242 2.184-2.191 2.169-1.039 0-1.28.362-.996 1.345.583 2.054.583 2.054-1.394 2.777-.925.333-1.095.824-.541 1.62 1.28 1.851 1.309 1.808-.498 3.138-.782.578-.782 1.027-.043 1.634.085.072.171.13.256.203h-3.77v.593h38.343v-.593h-4.581v-.029zM6.274 15.948c.014-6.956 5.62-12.61 12.463-12.625 6.872 0 12.506 5.727 12.463 12.726 0 .304-.014.622-.043.926h-4.652c1.394-.969 2.077-2.343 1.537-3.196-.299-.477-.939-.68-1.736-.578.028-.202.057-.405.071-.607.028-.246-.057-.492-.228-.68s-.413-.304-.669-.304H12.533a.911.911 0 0 0-.897.984 8.707 8.707 0 0 0 1.608 4.382H6.315c-.028-.333-.043-.68-.043-1.027zm18.567.911a9.11 9.11 0 0 0 1.28-2.748c.541-.13.982-.058 1.138.188.128.202.071.535-.142.897-.242.405-.654.81-1.167 1.142-.37.246-.74.419-1.11.521zM5.236 15.687c.171-7.592 6.26-13.493 13.673-13.42s13.616 6.464 13.303 14.36c0 .116-.014.231-.014.347h-.569c.028-.318.043-.651.043-.983.014-7.202-5.791-13.117-12.862-13.131-7.156-.014-12.975 5.857-12.99 13.102 0 .347.014.68.043 1.012h-.598c-.028-.419-.028-.853-.028-1.287zM0 23.959h6.089c-.427 1.678-.299 1.692 1.679 1.75 1.11.029 1.337.26 1.394 1.359.1 2.198.1 2.198 2.163 1.591.939-.275 1.28-.116 1.636.795.142.347.213.709.341 1.056.27.738.654.897 1.337.506.413-.231.768-.55 1.167-.795.498-.318.967-.376 1.366.202.285.405.598.81.925 1.186.441.521.854.521 1.309 0 .299-.333.541-.709.825-1.056.541-.665.91-.723 1.608-.246.37.246.726.506 1.11.738.583.376.982.188 1.209-.463.142-.405.327-.795.441-1.2.185-.723.626-.954 1.295-.795.413.101.797.275 1.195.39.825.246 1.266-.058 1.309-.94.014-.419.014-.853.014-1.287-.014-.651.327-.983.939-1.041.256-.029.526 0 .967 0 1.309.101 1.693-.318 1.11-1.764h6.971v-.593h-38.4v.607zm28.398 0c-2.305 2.878-5.819 4.714-9.703 4.657-3.87 0-7.341-1.822-9.618-4.657h19.321zm-9.717 5.698c-4.539 0-8.494-2.27-10.927-5.712h.74c2.362 3.124 6.075 5.134 10.258 5.134 4.14.043 7.868-1.996 10.23-5.134h.683c-2.49 3.485-6.545 5.785-10.984 5.712z"/>
    </symbol>
    <symbol id="iconsearch" viewBox="0 0 32 32">
      <path stroke-linecap="round" stroke-linejoin="round" stroke-width="2.133" d="M14.667 25.333c5.891 0 10.667-4.776 10.667-10.667S20.558 3.999 14.667 3.999 4 8.775 4 14.666s4.776 10.667 10.667 10.667zM28 28l-5.8-5.8"/>
    </symbol>
    <symbol id="iconshopping" viewBox="0 0 32 32">
      <path stroke-linecap="round" stroke-linejoin="round" stroke-width="2.133" d="M8 2.667 4 8v18.667a2.668 2.668 0 0 0 2.667 2.667h18.667a2.668 2.668 0 0 0 2.667-2.667V8l-4-5.333h-16zM4 8h24"/>
      <path stroke-linecap="round" stroke-linejoin="round" stroke-width="2.133" d="M21.333 13.333a5.332 5.332 0 1 1-10.666 0"/>
    </symbol>
    <symbol id="iconstar-coffy-shop" viewBox="0 0 34 32">
      <path d="m16.842 0 3.781 11.638H32.86l-9.9 7.192 3.781 11.638-9.9-7.192-9.9 7.192 3.781-11.638-9.9-7.192h12.236L16.839 0z"/>
    </symbol>
    <symbol id="iconVector3" viewBox="0 0 32 32">
      <path d="M23.385 0H8.616A8.623 8.623 0 0 0 .001 8.615v14.769a8.623 8.623 0 0 0 8.615 8.615h14.769A8.627 8.627 0 0 0 32 23.384V8.615A8.627 8.627 0 0 0 23.385 0zM16 23.385a7.389 7.389 0 0 1-6.823-4.558 7.384 7.384 0 1 1 6.822 4.559zm9.231-14.77a1.847 1.847 0 1 1 0-3.695 1.847 1.847 0 0 1 0 3.695zM20.923 16a4.92 4.92 0 0 1-5.883 4.828 4.93 4.93 0 0 1-2.521-1.347 4.93 4.93 0 0 1-1.067-5.365 4.925 4.925 0 0 1 8.029-1.597A4.923 4.923 0 0 1 20.923 16z"/>
    </symbol>
    <symbol id="iconVector4" viewBox="0 0 32 32">
      <path d="m18.672 15.722-3.743-1.747c-.327-.152-.595.018-.595.38v3.29c0 .362.268.532.595.38l3.742-1.747c.328-.153.328-.403.002-.557zM16 0C7.163 0 0 7.163 0 16s7.163 16 16 16 16-7.163 16-16S24.837 0 16 0zm0 22.5c-8.19 0-8.333-.738-8.333-6.5S7.81 9.5 16 9.5s8.333.738 8.333 6.5-.143 6.5-8.333 6.5z"/>
    </symbol>
    <symbol id="iconVector5" viewBox="0 0 32 32">
      <path d="M32 16.04C32 7.186 24.832 0 16 0S0 7.186 0 16.04c0 7.763 5.504 14.228 12.8 15.719V20.852H9.6V16.04h3.2v-4.01c0-3.096 2.512-5.614 5.6-5.614h4v4.812h-3.2c-.88 0-1.6.722-1.6 1.604v3.208h4.8v4.812h-4.8V32c8.08-.802 14.4-7.635 14.4-15.96z"/>
    </symbol>
  </defs>
</svg>
